{"accessors":[{"bufferView":0,"componentType":5125,"count":1223061,"type":"SCALAR"},{"bufferView":1,"componentType":5126,"count":1223061,"max":[5.21773099899292,2.8734118938446,0.793119072914124],"min":[-3.67044019699097,-2.22230362892151,-26.671272277832],"type":"VEC3"},{"bufferView":2,"componentType":5126,"count":1223061,"type":"VEC2"}],"asset":{"generator":"ply_to_gltf","version":"2.0"},"bufferViews":[{"buffer":0,"byteLength":4892244,"target":34963},{"buffer":0,"byteLength":14676732,"byteOffset":4892244,"target":34962},{"buffer":0,"byteLength":9784488,"byteOffset":19568976,"target":34962}],"buffers":[{"byteLength":29353464,"uri":"map_37322885_densified_mesh_textured_lod0.bin"}],"images":[{"uri":"map_37322885_densified_mesh_textured_8192.jpg"}],"materials":[{"pbrMetallicRoughness":{"baseColorTexture":{"index":0}}}],"meshes":[{"primitives":[{"attributes":{"POSITION":1,"TEXCOORD_0":2},"indices":0,"material":0,"mode":4}]}],"nodes":[{"mesh":0}],"samplers":[{"magFilter":9728,"minFilter":9728,"wrapR":10497,"wrapS":33071,"wrapT":33071}],"scene":0,"scenes":[{"nodes":[0]}],"textures":[{"sampler":0,"source":0}]}
