{
  "accessors": [
    {
      "bufferView": 2,
      "componentType": 5126,
      "count": 642,
      "max": [
        3.1291298866271973,
        1.8262699842453003,
        0.10000000149011612
      ],
      "min": [
        -3.1291298866271973,
        -2.4498300552368164,
        -0.10000000149011612
      ],
      "type": "VEC3"
    },
    {
      "bufferView": 2,
      "byteOffset": 7704,
      "componentType": 5126,
      "count": 642,
      "max": [
        1,
        1,
        1
      ],
      "min": [
        -1,
        -1,
        -1
      ],
      "type": "VEC3"
    },
    {
      "bufferView": 0,
      "componentType": 5125,
      "count": 2232,
      "max": [
        641
      ],
      "min": [
        0
      ],
      "type": "SCALAR"
    },
    {
      "bufferView": 2,
      "byteOffset": 15408,
      "componentType": 5126,
      "count": 14,
      "max": [
        0.91219997406005859,
        -0.84351998567581177,
        0.083480000495910645
      ],
      "min": [
        -0.91219997406005859,
        -2.1618099212646484,
        0.083480000495910645
      ],
      "type": "VEC3"
    },
    {
      "bufferView": 2,
      "byteOffset": 15576,
      "componentType": 5126,
      "count": 14,
      "max": [
        0,
        0,
        -1
      ],
      "min": [
        0,
        0,
        -1
      ],
      "type": "VEC3"
    },
    {
      "bufferView": 0,
      "byteOffset": 8928,
      "componentType": 5125,
      "count": 36,
      "max": [
        13
      ],
      "min": [
        0
      ],
      "type": "SCALAR"
    },
    {
      "bufferView": 2,
      "byteOffset": 15744,
      "componentType": 5126,
      "count": 8,
      "max": [
        2.9982500076293945,
        1.2880300283432007,
        0.10000000149011612
      ],
      "min": [
        -2.9982500076293945,
        -0.52142000198364258,
        0.10000000149011612
      ],
      "type": "VEC3"
    },
    {
      "bufferView": 2,
      "byteOffset": 15840,
      "componentType": 5126,
      "count": 8,
      "max": [
        0,
        0,
        -1
      ],
      "min": [
        0,
        0,
        -1
      ],
      "type": "VEC3"
    },
    {
      "bufferView": 0,
      "byteOffset": 9072,
      "componentType": 5125,
      "count": 12,
      "max": [
        7
      ],
      "min": [
        0
      ],
      "type": "SCALAR"
    },
    {
      "bufferView": 2,
      "byteOffset": 15936,
      "componentType": 5126,
      "count": 183,
      "max": [
        3.1291298866271973,
        1.8262699842453003,
        0.039999999105930328
      ],
      "min": [
        -3.1291298866271973,
        -2.4498300552368164,
        -0.039999999105930328
      ],
      "type": "VEC3"
    },
    {
      "bufferView": 2,
      "byteOffset": 18132,
      "componentType": 5126,
      "count": 183,
      "max": [
        1,
        1,
        1
      ],
      "min": [
        -1,
        -1,
        0
      ],
      "type": "VEC3"
    },
    {
      "bufferView": 3,
      "componentType": 5126,
      "count": 183,
      "max": [
        0,
        0,
        0,
        1
      ],
      "min": [
        0,
        0,
        0,
        1
      ],
      "type": "VEC4"
    },
    {
      "bufferView": 1,
      "componentType": 5126,
      "count": 183,
      "max": [
        0,
        0
      ],
      "min": [
        0,
        0
      ],
      "type": "VEC2"
    },
    {
      "bufferView": 0,
      "byteOffset": 9120,
      "componentType": 5125,
      "count": 552,
      "max": [
        182
      ],
      "min": [
        0
      ],
      "type": "SCALAR"
    },
    {
      "bufferView": 2,
      "byteOffset": 20328,
      "componentType": 5126,
      "count": 63,
      "max": [
        2.9402399063110352,
        1.512220025062561,
        0.039999999105930328
      ],
      "min": [
        -2.9402399063110352,
        -2.1325299739837646,
        0.039999999105930328
      ],
      "type": "VEC3"
    },
    {
      "bufferView": 2,
      "byteOffset": 21084,
      "componentType": 5126,
      "count": 63,
      "max": [
        -0,
        -0,
        -1
      ],
      "min": [
        -0,
        -0,
        -1
      ],
      "type": "VEC3"
    },
    {
      "bufferView": 3,
      "byteOffset": 2928,
      "componentType": 5126,
      "count": 63,
      "max": [
        0.12450253218412399,
        1,
        0,
        1
      ],
      "min": [
        -0.1654258668422699,
        0.98622226715087891,
        0,
        1
      ],
      "type": "VEC4"
    },
    {
      "bufferView": 1,
      "byteOffset": 1464,
      "componentType": 5126,
      "count": 63,
      "max": [
        0.98772001266479492,
        0.98650997877120972
      ],
      "min": [
        0.012280000373721123,
        0.012319999746978283
      ],
      "type": "VEC2"
    },
    {
      "bufferView": 0,
      "byteOffset": 11328,
      "componentType": 5125,
      "count": 192,
      "max": [
        62
      ],
      "min": [
        0
      ],
      "type": "SCALAR"
    },
    {
      "bufferView": 2,
      "byteOffset": 21840,
      "componentType": 5126,
      "count": 120,
      "max": [
        3.1291298866271973,
        1.8262699842453003,
        0.039999999105930328
      ],
      "min": [
        -3.1291298866271973,
        -2.4498300552368164,
        0.039999999105930328
      ],
      "type": "VEC3"
    },
    {
      "bufferView": 2,
      "byteOffset": 23280,
      "componentType": 5126,
      "count": 120,
      "max": [
        0,
        -0,
        -1
      ],
      "min": [
        0,
        -0,
        -1
      ],
      "type": "VEC3"
    },
    {
      "bufferView": 3,
      "byteOffset": 3936,
      "componentType": 5126,
      "count": 120,
      "max": [
        0,
        0,
        0,
        1
      ],
      "min": [
        0,
        0,
        0,
        1
      ],
      "type": "VEC4"
    },
    {
      "bufferView": 1,
      "byteOffset": 1968,
      "componentType": 5126,
      "count": 120,
      "max": [
        0,
        0
      ],
      "min": [
        0,
        0
      ],
      "type": "VEC2"
    },
    {
      "bufferView": 0,
      "byteOffset": 12096,
      "componentType": 5125,
      "count": 360,
      "max": [
        119
      ],
      "min": [
        0
      ],
      "type": "SCALAR"
    },
    {
      "bufferView": 2,
      "byteOffset": 24720,
      "componentType": 5126,
      "count": 1676,
      "max": [
        9.2284698486328125,
        0.68535000085830688,
        0.22585999965667725
      ],
      "min": [
        -0.27483999729156494,
        -2.9132800102233887,
        0.007780000101774931
      ],
      "type": "VEC3"
    },
    {
      "bufferView": 2,
      "byteOffset": 44832,
      "componentType": 5126,
      "count": 1676,
      "max": [
        1,
        1,
        1
      ],
      "min": [
        -1,
        -1,
        -1
      ],
      "type": "VEC3"
    },
    {
      "bufferView": 0,
      "byteOffset": 13536,
      "componentType": 5125,
      "count": 4380,
      "max": [
        1675
      ],
      "min": [
        0
      ],
      "type": "SCALAR"
    },
    {
      "bufferView": 2,
      "byteOffset": 64944,
      "componentType": 5126,
      "count": 6094,
      "max": [
        9.2284603118896484,
        0.68535000085830688,
        0.22585999965667725
      ],
      "min": [
        -0.27483999729156494,
        -2.9132800102233887,
        0.007780000101774931
      ],
      "type": "VEC3"
    },
    {
      "bufferView": 2,
      "byteOffset": 138072,
      "componentType": 5126,
      "count": 6094,
      "max": [
        1,
        1,
        -0
      ],
      "min": [
        -1,
        -1,
        -0
      ],
      "type": "VEC3"
    },
    {
      "bufferView": 0,
      "byteOffset": 31056,
      "componentType": 5125,
      "count": 9168,
      "max": [
        6093
      ],
      "min": [
        0
      ],
      "type": "SCALAR"
    },
    {
      "bufferView": 2,
      "byteOffset": 211200,
      "componentType": 5126,
      "count": 240,
      "max": [
        2.4688699245452881,
        1.8993300199508667,
        0.14409999549388885
      ],
      "min": [
        -2.4688699245452881,
        1.6698900461196899,
        0.056400001049041748
      ],
      "type": "VEC3"
    },
    {
      "bufferView": 2,
      "byteOffset": 214080,
      "componentType": 5126,
      "count": 240,
      "max": [
        1,
        1,
        1
      ],
      "min": [
        -1,
        -1,
        -1
      ],
      "type": "VEC3"
    },
    {
      "bufferView": 0,
      "byteOffset": 67728,
      "componentType": 5125,
      "count": 636,
      "max": [
        239
      ],
      "min": [
        0
      ],
      "type": "SCALAR"
    },
    {
      "bufferView": 2,
      "byteOffset": 216960,
      "componentType": 5126,
      "count": 72,
      "max": [
        0.16207000613212585,
        0.16207000613212585,
        0.064829997718334198
      ],
      "min": [
        -0.16207000613212585,
        -0.16207000613212585,
        -0.064829997718334198
      ],
      "type": "VEC3"
    },
    {
      "bufferView": 2,
      "byteOffset": 217824,
      "componentType": 5126,
      "count": 72,
      "max": [
        0.69623202085494995,
        0.71695238351821899,
        0.71695226430892944
      ],
      "min": [
        -0.69623202085494995,
        -0.71695238351821899,
        -0.71695226430892944
      ],
      "type": "VEC3"
    },
    {
      "bufferView": 0,
      "byteOffset": 70272,
      "componentType": 5125,
      "count": 420,
      "max": [
        71
      ],
      "min": [
        0
      ],
      "type": "SCALAR"
    },
    {
      "bufferView": 2,
      "byteOffset": 218688,
      "componentType": 5126,
      "count": 864,
      "max": [
        -0.16004000604152679,
        0.039999999105930328,
        0.039999999105930328
      ],
      "min": [
        -3.141930103302002,
        -3.0466599464416504,
        -0.039999999105930328
      ],
      "type": "VEC3"
    },
    {
      "bufferView": 2,
      "byteOffset": 229056,
      "componentType": 5126,
      "count": 864,
      "max": [
        0.91871672868728638,
        0.99483835697174072,
        1
      ],
      "min": [
        -0.91871672868728638,
        -0.99484771490097046,
        -1
      ],
      "type": "VEC3"
    },
    {
      "bufferView": 0,
      "byteOffset": 71952,
      "componentType": 5125,
      "count": 5106,
      "max": [
        863
      ],
      "min": [
        0
      ],
      "type": "SCALAR"
    },
    {
      "bufferView": 2,
      "byteOffset": 239424,
      "componentType": 5126,
      "count": 72,
      "max": [
        0.042440000921487808,
        0.051929999142885208,
        0.051929999142885208
      ],
      "min": [
        -0.16004000604152679,
        -0.051929999142885208,
        -0.051929999142885208
      ],
      "type": "VEC3"
    },
    {
      "bufferView": 2,
      "byteOffset": 240288,
      "componentType": 5126,
      "count": 72,
      "max": [
        0,
        1,
        1
      ],
      "min": [
        -0.7540355920791626,
        -1,
        -1
      ],
      "type": "VEC3"
    },
    {
      "bufferView": 0,
      "byteOffset": 92376,
      "componentType": 5125,
      "count": 288,
      "max": [
        71
      ],
      "min": [
        0
      ],
      "type": "SCALAR"
    }
  ],
  "asset": {
    "extras": {
      "author": "Sorin Covor (https://sketchfab.com/blessthefall)",
      "license": "SKETCHFAB Editorial (https://sketchfab.com/licenses)",
      "source": "https://sketchfab.com/models/ddeb217b87844d808b610e6d2269ade3",
      "title": "Notebook"
    },
    "generator": "Sketchfab-4.4.0",
    "version": "2.0"
  },
  "bufferViews": [
    {
      "buffer": 0,
      "byteLength": 93528,
      "byteOffset": 0,
      "name": "floatBufferViews",
      "target": 34963
    },
    {
      "buffer": 0,
      "byteLength": 2928,
      "byteOffset": 93528,
      "byteStride": 8,
      "name": "floatBufferViews",
      "target": 34962
    },
    {
      "buffer": 0,
      "byteLength": 241152,
      "byteOffset": 96456,
      "byteStride": 12,
      "name": "floatBufferViews",
      "target": 34962
    },
    {
      "buffer": 0,
      "byteLength": 5856,
      "byteOffset": 337608,
      "byteStride": 16,
      "name": "floatBufferViews",
      "target": 34962
    }
  ],
  "buffers": [
    {
      "byteLength": 343464,
      "uri": "scene.bin"
    }
  ],
  "extensionsRequired": [
    "KHR_materials_pbrSpecularGlossiness"
  ],
  "extensionsUsed": [
    "KHR_materials_pbrSpecularGlossiness"
  ],
  "images": [
    {
      "uri": "textures/Screen_diffuse.png"
    }
  ],
  "materials": [
    {
      "doubleSided": true,
      "emissiveFactor": [
        0,
        0,
        0
      ],
      "extensions": {
        "KHR_materials_pbrSpecularGlossiness": {
          "diffuseFactor": [
            0.69818836449999999,
            0.69818836449999999,
            0.69818836449999999,
            1
          ],
          "glossinessFactor": 0.40000000000000002,
          "specularFactor": [
            0,
            0,
            0
          ]
        }
      },
      "name": "Notebook_2"
    },
    {
      "doubleSided": true,
      "emissiveFactor": [
        0,
        0,
        0
      ],
      "extensions": {
        "KHR_materials_pbrSpecularGlossiness": {
          "diffuseFactor": [
            0.58146327730000003,
            0.58146327730000003,
            0.58146327730000003,
            1
          ],
          "glossinessFactor": 0.40000000000000002,
          "specularFactor": [
            0,
            0,
            0
          ]
        }
      },
      "name": "Cable"
    },
    {
      "doubleSided": true,
      "extensions": {
        "KHR_materials_pbrSpecularGlossiness": {
          "diffuseFactor": [
            0.036889450400000003,
            0.036889450400000003,
            0.036889450400000003,
            1
          ],
          "glossinessFactor": 1,
          "specularFactor": [
            0,
            0,
            0
          ]
        }
      },
      "name": "Battery"
    },
    {
      "doubleSided": true,
      "extensions": {
        "KHR_materials_pbrSpecularGlossiness": {
          "diffuseFactor": [
            0.036889450400000003,
            0.036889450400000003,
            0.036889450400000003,
            1
          ],
          "glossinessFactor": 1,
          "specularFactor": [
            0,
            0,
            0
          ]
        }
      },
      "name": "Keyboard_1"
    },
    {
      "doubleSided": true,
      "extensions": {
        "KHR_materials_pbrSpecularGlossiness": {
          "diffuseFactor": [
            0.022173884800000002,
            0.022173884800000002,
            0.022173884800000002,
            1
          ],
          "glossinessFactor": 1,
          "specularFactor": [
            0,
            0,
            0
          ]
        }
      },
      "name": "Keyboard_2"
    },
    {
      "doubleSided": true,
      "emissiveFactor": [
        0,
        0,
        0
      ],
      "extensions": {
        "KHR_materials_pbrSpecularGlossiness": {
          "diffuseFactor": [
            0.75483363869999998,
            0.75483363869999998,
            0.75483363869999998,
            1
          ],
          "glossinessFactor": 0.40000000000000002,
          "specularFactor": [
            0,
            0,
            0
          ]
        }
      },
      "name": "Notebook_1"
    },
    {
      "doubleSided": true,
      "emissiveFactor": [
        0,
        0,
        0
      ],
      "extensions": {
        "KHR_materials_pbrSpecularGlossiness": {
          "diffuseFactor": [
            1,
            1,
            1,
            1
          ],
          "diffuseTexture": {
            "index": 0,
            "texCoord": 0
          },
          "glossinessFactor": 1,
          "specularFactor": [
            0,
            0,
            0
          ]
        }
      },
      "name": "Screen"
    },
    {
      "doubleSided": true,
      "emissiveFactor": [
        0,
        0,
        0
      ],
      "extensions": {
        "KHR_materials_pbrSpecularGlossiness": {
          "diffuseFactor": [
            0.028146384300000001,
            0.028146384300000001,
            0.028146384300000001,
            1
          ],
          "glossinessFactor": 0,
          "specularFactor": [
            0,
            0,
            0
          ]
        }
      },
      "name": "Notebook_4"
    },
    {
      "doubleSided": true,
      "emissiveFactor": [
        0,
        0,
        0
      ],
      "extensions": {
        "KHR_materials_pbrSpecularGlossiness": {
          "diffuseFactor": [
            0.65000545980000002,
            0.65000545980000002,
            0.65000545980000002,
            1
          ],
          "glossinessFactor": 0.40000000000000002,
          "specularFactor": [
            0,
            0,
            0
          ]
        }
      },
      "name": "Notebook_3"
    }
  ],
  "meshes": [
    {
      "name": "Notebook_0",
      "primitives": [
        {
          "attributes": {
            "NORMAL": 1,
            "POSITION": 0
          },
          "indices": 2,
          "material": 5,
          "mode": 4
        }
      ]
    },
    {
      "name": "Notebook_1",
      "primitives": [
        {
          "attributes": {
            "NORMAL": 4,
            "POSITION": 3
          },
          "indices": 5,
          "material": 0,
          "mode": 4
        }
      ]
    },
    {
      "name": "Notebook_2",
      "primitives": [
        {
          "attributes": {
            "NORMAL": 7,
            "POSITION": 6
          },
          "indices": 8,
          "material": 8,
          "mode": 4
        }
      ]
    },
    {
      "name": "Screen_0",
      "primitives": [
        {
          "attributes": {
            "NORMAL": 10,
            "POSITION": 9,
            "TANGENT": 11,
            "TEXCOORD_0": 12
          },
          "indices": 13,
          "material": 5,
          "mode": 4
        }
      ]
    },
    {
      "name": "Screen_1",
      "primitives": [
        {
          "attributes": {
            "NORMAL": 15,
            "POSITION": 14,
            "TANGENT": 16,
            "TEXCOORD_0": 17
          },
          "indices": 18,
          "material": 6,
          "mode": 4
        }
      ]
    },
    {
      "name": "Screen_2",
      "primitives": [
        {
          "attributes": {
            "NORMAL": 20,
            "POSITION": 19,
            "TANGENT": 21,
            "TEXCOORD_0": 22
          },
          "indices": 23,
          "material": 7,
          "mode": 4
        }
      ]
    },
    {
      "name": "Keys_0",
      "primitives": [
        {
          "attributes": {
            "NORMAL": 25,
            "POSITION": 24
          },
          "indices": 26,
          "material": 3,
          "mode": 4
        }
      ]
    },
    {
      "name": "Keys_1",
      "primitives": [
        {
          "attributes": {
            "NORMAL": 28,
            "POSITION": 27
          },
          "indices": 29,
          "material": 4,
          "mode": 4
        }
      ]
    },
    {
      "name": "Battery_0",
      "primitives": [
        {
          "attributes": {
            "NORMAL": 31,
            "POSITION": 30
          },
          "indices": 32,
          "material": 2,
          "mode": 4
        }
      ]
    },
    {
      "name": "Cable 2_0",
      "primitives": [
        {
          "attributes": {
            "NORMAL": 34,
            "POSITION": 33
          },
          "indices": 35,
          "material": 1,
          "mode": 4
        }
      ]
    },
    {
      "name": "Cable_0",
      "primitives": [
        {
          "attributes": {
            "NORMAL": 37,
            "POSITION": 36
          },
          "indices": 38,
          "material": 0,
          "mode": 4
        }
      ]
    },
    {
      "name": "Cable_1",
      "primitives": [
        {
          "attributes": {
            "NORMAL": 40,
            "POSITION": 39
          },
          "indices": 41,
          "material": 1,
          "mode": 4
        }
      ]
    }
  ],
  "nodes": [
    {
      "children": [
        1
      ],
      "name": "RootNode (gltf orientation matrix)",
      "rotation": [
        -0.70710678118654746,
        -0,
        -0,
        0.70710678118654757
      ]
    },
    {
      "children": [
        2
      ],
      "name": "RootNode (model correction matrix)"
    },
    {
      "children": [
        3,
        7,
        11,
        14,
        16,
        18
      ],
      "name": "Root"
    },
    {
      "children": [
        4,
        5,
        6
      ],
      "name": "Notebook"
    },
    {
      "mesh": 0,
      "name": "Notebook_0"
    },
    {
      "mesh": 1,
      "name": "Notebook_1"
    },
    {
      "mesh": 2,
      "name": "Notebook_2"
    },
    {
      "children": [
        8,
        9,
        10
      ],
      "matrix": [
        1,
        0,
        0,
        0,
        0,
        0.25882000000000005,
        0.96593000000000007,
        0,
        0,
        -0.96593000000000007,
        0.25882000000000005,
        0,
        0,
        2.5249600000000001,
        2.4864499999999996,
        1
      ],
      "name": "Screen"
    },
    {
      "mesh": 3,
      "name": "Screen_0"
    },
    {
      "mesh": 4,
      "name": "Screen_1"
    },
    {
      "mesh": 5,
      "name": "Screen_2"
    },
    {
      "children": [
        12,
        13
      ],
      "matrix": [
        0.5,
        0,
        0,
        0,
        0,
        0.5,
        0,
        0,
        0,
        0,
        0.5,
        0,
        -2.2316499999999997,
        0.95872000000000013,
        0,
        1
      ],
      "name": "Keys"
    },
    {
      "mesh": 6,
      "name": "Keys_0"
    },
    {
      "mesh": 7,
      "name": "Keys_1"
    },
    {
      "children": [
        15
      ],
      "name": "Battery"
    },
    {
      "mesh": 8,
      "name": "Battery_0"
    },
    {
      "children": [
        17
      ],
      "matrix": [
        1,
        0,
        0,
        0,
        0,
        1,
        0,
        0,
        0,
        0,
        1,
        0,
        -3.1645900000000005,
        1.2653999999999999,
        0,
        1
      ],
      "name": "Cable 2"
    },
    {
      "mesh": 9,
      "name": "Cable 2_0"
    },
    {
      "children": [
        19,
        20
      ],
      "matrix": [
        1,
        0,
        0,
        0,
        0,
        1,
        0,
        0,
        0,
        0,
        1,
        0,
        -3.3266699999999996,
        1.2653999999999999,
        0,
        1
      ],
      "name": "Cable"
    },
    {
      "mesh": 10,
      "name": "Cable_0"
    },
    {
      "mesh": 11,
      "name": "Cable_1"
    }
  ],
  "samplers": [
    {
      "magFilter": 9729,
      "minFilter": 9987,
      "wrapS": 10497,
      "wrapT": 10497
    }
  ],
  "scene": 0,
  "scenes": [
    {
      "name": "OSG_Scene",
      "nodes": [
        0
      ]
    }
  ],
  "textures": [
    {
      "sampler": 0,
      "source": 0
    }
  ]
}

