{
  "accessors": [
    {
      "bufferView": 2,
      "componentType": 5126,
      "count": 15817,
      "max": [
        18.263797760009766,
        7.7814536094665527,
        8.5967235565185547
      ],
      "min": [
        -18.263797760009766,
        -7.7814540863037109,
        -8.5967235565185547
      ],
      "type": "VEC3"
    },
    {
      "bufferView": 2,
      "byteOffset": 189804,
      "componentType": 5126,
      "count": 15817,
      "max": [
        0.99999946355819702,
        0.99999964237213135,
        0.99999761581420898
      ],
      "min": [
        -0.99999594688415527,
        -0.99999970197677612,
        -0.99999797344207764
      ],
      "type": "VEC3"
    },
    {
      "bufferView": 3,
      "componentType": 5126,
      "count": 15817,
      "max": [
        0.99999773502349854,
        0.99999815225601196,
        0.99996852874755859,
        1
      ],
      "min": [
        -0.97143125534057617,
        -0.99999916553497314,
        -0.9999890923500061,
        1
      ],
      "type": "VEC4"
    },
    {
      "bufferView": 1,
      "componentType": 5126,
      "count": 15817,
      "max": [
        0.99849998950958252,
        0.9910506010055542
      ],
      "min": [
        0.001500000013038516,
        0.001500000013038516
      ],
      "type": "VEC2"
    },
    {
      "bufferView": 0,
      "componentType": 5125,
      "count": 89994,
      "max": [
        15816
      ],
      "min": [
        0
      ],
      "type": "SCALAR"
    }
  ],
  "asset": {
    "generator": "Sketchfab (OSG glTF plugin)",
    "version": "2.0"
  },
  "bufferViews": [
    {
      "buffer": 0,
      "byteLength": 359976,
      "byteOffset": 0,
      "name": "floatBufferViews",
      "target": 34963
    },
    {
      "buffer": 0,
      "byteLength": 126536,
      "byteOffset": 359976,
      "byteStride": 8,
      "name": "floatBufferViews",
      "target": 34962
    },
    {
      "buffer": 0,
      "byteLength": 379608,
      "byteOffset": 486512,
      "byteStride": 12,
      "name": "floatBufferViews",
      "target": 34962
    },
    {
      "buffer": 0,
      "byteLength": 253072,
      "byteOffset": 866120,
      "byteStride": 16,
      "name": "floatBufferViews",
      "target": 34962
    }
  ],
  "buffers": [
    {
      "byteLength": 1119192,
      "uri": "scene.bin"
    }
  ],
  "images": [
    {
      "uri": "./textures/krabice_metallicRoughness.png"
    },
    {
      "uri": "textures/krabice_normal.jpeg"
    },
    {
      "uri": "textures/krabice_baseColor.jpeg"
    }
  ],
  "materials": [
    {
      "doubleSided": true,
      "emissiveFactor": [
        0,
        0,
        0
      ],
      "name": "krabice",
      "normalTexture": {
        "index": 1,
        "scale": 1,
        "texCoord": 0
      },
      "occlusionTexture": {
        "index": 0,
        "strength": 1,
        "texCoord": 0
      },
      "pbrMetallicRoughness": {
        "baseColorFactor": [
          1,
          1,
          1,
          1
        ],
        "baseColorTexture": {
          "index": 2,
          "texCoord": 0
        },
        "metallicFactor": 0,
        "roughnessFactor": 0.5322027439
      }
    }
  ],
  "meshes": [
    {
      "name": "krabice_krabice_0",
      "primitives": [
        {
          "attributes": {
            "NORMAL": 1,
            "POSITION": 0,
            "TANGENT": 2,
            "TEXCOORD_0": 3
          },
          "indices": 4,
          "material": 0,
          "mode": 4
        }
      ]
    }
  ],
  "nodes": [
    {
      "children": [
        1
      ],
      "name": "RootNode (gltf orientation matrix)",
      "rotation": [
        -0.70710678118654746,
        -0,
        -0,
        0.70710678118654757
      ]
    },
    {
      "children": [
        2
      ],
      "matrix": [
        -0.99971628189086914,
        0,
        -0.023819480091333389,
        0,
        0,
        1,
        0,
        0,
        0.023819480091333389,
        0,
        -0.99971628189086914,
        0,
        4.7795605659484863,
        0,
        -0.56347936391830444,
        1
      ],
      "name": "RootNode (model correction matrix)"
    },
    {
      "children": [
        3
      ],
      "matrix": [
        1,
        0,
        0,
        0,
        0,
        0,
        1,
        0,
        0,
        -1,
        0,
        0,
        0,
        0,
        0,
        1
      ],
      "name": "krabice.FBX"
    },
    {
      "children": [
        4
      ],
      "name": "RootNode"
    },
    {
      "children": [
        6
      ],
      "matrix": [
        1,
        0,
        0,
        0,
        0,
        2.2204460492503131e-16,
        -1,
        0,
        0,
        1,
        2.2204460492503131e-16,
        0,
        2.386390209197998,
        -0.31020307540893555,
        7.8727302551269531,
        1
      ],
      "name": "krabice"
    },
    {
      "mesh": 0,
      "name": "krabice_krabice_0"
    },
    {
      "children": [
        5
      ],
      "name": "Geode"
    }
  ],
  "samplers": [
    {
      "magFilter": 9729,
      "minFilter": 9987,
      "wrapS": 10497,
      "wrapT": 10497
    }
  ],
  "scene": 0,
  "scenes": [
    {
      "name": "OSG_Scene",
      "nodes": [
        0
      ]
    }
  ],
  "textures": [
    {
      "sampler": 0,
      "source": 0
    },
    {
      "sampler": 0,
      "source": 1
    },
    {
      "sampler": 0,
      "source": 2
    }
  ]
}

