<?xml version="1.0" encoding="UTF-8"?>
<svg width="347px" height="31px" viewBox="0 0 347 31" version="1.1" xmlns="http://www.w3.org/2000/svg" xmlns:xlink="http://www.w3.org/1999/xlink">
    <!-- Generator: Sketch 47 (45396) - http://www.bohemiancoding.com/sketch -->
    <title>OUTLINE FututreShock.ai</title>
    <desc>Created with Sketch.</desc>
    <defs></defs>
    <g id="Page-1" stroke="none" stroke-width="1" fill="none" fill-rule="evenodd">
        <g id="OUTLINE-FututreShock.ai" transform="translate(0.000000, -19.000000)">
            <g>
                <path d="M22.4534139,19.9930435 L20.7390937,25.9617391 L11.9166163,25.9617391 L11.0385498,32.306087 L18.81571,32.306087 L17.9794562,38.2747826 L10.2022961,38.2747826 L8.69703927,49.0434783 L0.250876133,49.0434783 L4.30670695,19.9930435 L22.4534139,19.9930435 Z M44.739577,39.2347826 C44.4608244,41.2660971 43.7709219,43.0817311 42.6698489,44.6817391 C41.568776,46.2817471 40.0705029,47.5478214 38.1749849,48.48 C36.2794669,49.4121786 34.0494791,49.8782609 31.4849547,49.8782609 C27.9726713,49.8782609 25.3384982,49.0991382 23.5823565,47.5408696 C21.8262148,45.9826009 20.9481571,43.8400136 20.9481571,41.1130435 C20.9481571,40.4730403 20.9899694,39.8191338 21.0735952,39.1513043 L23.7496073,19.9930435 L32.1957704,19.9930435 L29.5197583,38.9843478 C29.4361325,39.5965248 29.3943202,40.153041 29.3943202,40.653913 C29.3943202,41.7113096 29.6103503,42.4834758 30.0424169,42.9704348 C30.4744835,43.4573937 31.1783234,43.7008696 32.1539577,43.7008696 C33.3804694,43.7008696 34.3212455,43.3113082 34.9763142,42.5321739 C35.6313829,41.7530396 36.0704118,40.5426169 36.2934139,38.9008696 L38.969426,19.9930435 L47.4155891,19.9930435 L44.739577,39.2347826 Z M71.7087613,19.9930435 L69.9526284,26.4208696 L63.4716616,26.4208696 L60.2938973,49.0434783 L51.8477341,49.0434783 L55.0254985,26.4208696 L48.0845921,26.4208696 L48.9626586,19.9930435 L71.7087613,19.9930435 Z M93.8276737,39.2347826 C93.5489211,41.2660971 92.8590186,43.0817311 91.7579456,44.6817391 C90.6568726,46.2817471 89.1585996,47.5478214 87.2630816,48.48 C85.3675635,49.4121786 83.1375758,49.8782609 80.5730514,49.8782609 C77.0607679,49.8782609 74.4265949,49.0991382 72.6704532,47.5408696 C70.9143115,45.9826009 70.0362538,43.8400136 70.0362538,41.1130435 C70.0362538,40.4730403 70.078066,39.8191338 70.1616918,39.1513043 L72.8377039,19.9930435 L81.2838671,19.9930435 L78.607855,38.9843478 C78.5242292,39.5965248 78.4824169,40.153041 78.4824169,40.653913 C78.4824169,41.7113096 78.698447,42.4834758 79.1305136,42.9704348 C79.5625802,43.4573937 80.2664201,43.7008696 81.2420544,43.7008696 C82.4685661,43.7008696 83.4093421,43.3113082 84.0644109,42.5321739 C84.7194796,41.7530396 85.1585085,40.5426169 85.3815106,38.9008696 L88.0575227,19.9930435 L96.5036858,19.9930435 L93.8276737,39.2347826 Z M120.796858,19.9930435 L119.040725,26.4208696 L112.559758,26.4208696 L109.381994,49.0434783 L100.935831,49.0434783 L104.113595,26.4208696 L97.1726888,26.4208696 L98.0507553,19.9930435 L120.796858,19.9930435 Z M143.877462,28.0069565 C143.877462,30.0104448 143.452371,31.7565143 142.602175,33.2452174 C141.75198,34.7339205 140.114332,36.0904287 137.689184,37.3147826 L142.91577,49.0434783 L133.716979,49.0434783 L129.870211,38.6921739 L128.155891,38.6921739 L126.73426,49.0434783 L118.288097,49.0434783 L122.343927,19.9930435 L132.838912,19.9930435 C136.406946,19.9930435 139.138681,20.7165145 141.034199,22.1634783 C142.929717,23.610442 143.877462,25.5582486 143.877462,28.0069565 Z M128.992145,32.9321739 L131.166405,32.9321739 C132.532293,32.9321739 133.542756,32.5008739 134.197825,31.6382609 C134.852894,30.7756479 135.180423,29.7460929 135.180423,28.5495652 C135.180423,26.7686867 134.051492,25.8782609 131.793595,25.8782609 L129.953837,25.8782609 L128.992145,32.9321739 Z M166.70719,19.9930435 L164.99287,25.9617391 L155.543202,25.9617391 L154.790574,31.3878261 L163.027674,31.3878261 L162.275045,37.1895652 L153.996133,37.1895652 L153.159879,43.0330435 L163.27855,43.0330435 L162.442296,49.0434783 L143.877462,49.0434783 L147.933293,19.9930435 L166.70719,19.9930435 Z M179.418248,19.1582609 C183.711039,19.1582609 187.16752,20.4938997 189.787795,23.1652174 L185.5229,27.5478261 C183.822509,26.0173837 181.899145,25.2521739 179.752749,25.2521739 C178.637739,25.2521739 177.780587,25.4678239 177.181269,25.8991304 C176.581951,26.3304369 176.282296,26.8939096 176.282296,27.5895652 C176.282296,28.0626111 176.414702,28.4521724 176.679517,28.7582609 C176.944332,29.0643494 177.390329,29.3565203 178.017523,29.6347826 C178.644716,29.9130449 179.585492,30.2608675 180.839879,30.6782609 C183.376528,31.5408739 185.237174,32.6469498 186.421873,33.9965217 C187.606572,35.3460937 188.198912,37.0504245 188.198912,39.1095652 C188.198912,40.9460961 187.766852,42.6782527 186.902719,44.306087 C186.038586,45.9339212 184.630906,47.26956 182.679637,48.3130435 C180.728369,49.356527 178.219633,49.8782609 175.153353,49.8782609 C172.672455,49.8782609 170.498217,49.4678302 168.630574,48.6469565 C166.762931,47.8260829 165.188002,46.7617457 163.90574,45.453913 L168.630574,40.653913 C170.498217,42.5182702 172.742142,43.4504348 175.362417,43.4504348 C176.616804,43.4504348 177.578486,43.2139154 178.247492,42.7408696 C178.916499,42.2678237 179.250997,41.5860914 179.250997,40.6956522 C179.250997,39.9165178 178.951342,39.2626113 178.352024,38.733913 C177.752706,38.2052147 176.686493,37.6765244 175.153353,37.1478261 C172.365827,36.2295606 170.372775,35.081746 169.174139,33.7043478 C167.975503,32.3269496 167.376193,30.6782705 167.376193,28.7582609 C167.376193,27.0608611 167.808253,25.4887029 168.672387,24.0417391 C169.53652,22.5947754 170.874513,21.419135 172.686405,20.5147826 C174.498297,19.6104303 176.742222,19.1582609 179.418248,19.1582609 Z M197.690393,49.0434783 L189.24423,49.0434783 L193.341873,19.9930435 L201.788036,19.9930435 L200.282779,30.72 L206.721934,30.72 L208.22719,19.9930435 L216.673353,19.9930435 L212.617523,49.0434783 L204.17136,49.0434783 L205.760242,37.3147826 L199.3629,37.3147826 L197.690393,49.0434783 Z M232.729426,19.1582609 C236.464712,19.1582609 239.321883,20.2086851 241.301027,22.3095652 C243.280171,24.4104453 244.269728,27.3530246 244.269728,31.1373913 C244.269728,34.1147975 243.767981,37.0225945 242.764471,39.8608696 C241.760962,42.6991446 240.088471,45.0782513 237.746949,46.9982609 C235.405426,48.9182705 232.353131,49.8782609 228.58997,49.8782609 C224.88256,49.8782609 222.032356,48.8208801 220.039275,46.706087 C218.046193,44.5912938 217.049668,41.6417581 217.049668,37.8573913 C217.049668,34.8799851 217.551415,31.9721881 218.554924,29.133913 C219.558434,26.295638 221.237894,23.9234878 223.593353,22.0173913 C225.948813,20.1112948 228.99414,19.1582609 232.729426,19.1582609 Z M232.060423,25.2521739 C230.415782,25.2521739 229.126571,26.0173837 228.192749,27.5478261 C227.258928,29.0782685 226.617806,30.8521638 226.269366,32.8695652 C225.920925,34.8869666 225.746707,36.7860781 225.746707,38.5669565 C225.746707,40.4313137 226.032424,41.7669525 226.603867,42.573913 C227.17531,43.3808736 228.060336,43.7843478 229.258973,43.7843478 C230.903613,43.7843478 232.192825,43.0260945 233.126647,41.5095652 C234.060468,39.9930359 234.701589,38.2191406 235.05003,36.1878261 C235.398471,34.1565116 235.572689,32.2226179 235.572689,30.386087 C235.572689,28.549556 235.286972,27.2347866 234.715529,26.4417391 C234.144086,25.6486917 233.259059,25.2521739 232.060423,25.2521739 Z M260.869366,19.1582609 C264.827653,19.1582609 267.866012,20.4104223 269.984532,22.9147826 L265.510574,27.213913 C264.813692,26.6017361 264.102884,26.1356538 263.378127,25.8156522 C262.65337,25.4956506 261.844999,25.3356522 260.952991,25.3356522 C259.30835,25.3356522 257.977326,26.010428 256.959879,27.36 C255.942432,28.709572 255.217686,30.3304253 254.785619,32.2226087 C254.353553,34.1147921 254.137523,35.9095567 254.137523,37.6069565 C254.137523,41.4748019 255.573077,43.4086957 258.44423,43.4086957 C259.364113,43.4086957 260.24914,43.2000021 261.099335,42.7826087 C261.949531,42.3652153 262.904244,41.7669604 263.963505,40.9878261 L267.141269,45.8713043 C265.803256,47.0678321 264.277108,48.0347789 262.562779,48.7721739 C260.848451,49.5095689 258.973867,49.8782609 256.938973,49.8782609 C254.625326,49.8782609 252.604399,49.4121786 250.876133,48.48 C249.147866,47.5478214 247.802905,46.1774003 246.841208,44.3686957 C245.879512,42.559991 245.398671,40.3617521 245.398671,37.773913 C245.398671,34.7965069 245.928293,31.8887098 246.987553,29.0504348 C248.046813,26.2121597 249.733241,23.8539224 252.046888,21.9756522 C254.360535,20.0973819 257.301332,19.1582609 260.869366,19.1582609 Z M268.479275,49.0434783 L272.535106,19.9930435 L280.981269,19.9930435 L276.925438,49.0434783 L268.479275,49.0434783 Z M285.0371,49.0434783 L279.350574,33.5582609 L289.092931,19.9930435 L297.873595,19.9930435 L287.922175,33.3078261 L294.570393,49.0434783 L285.0371,49.0434783 Z M298.709849,49.8782609 C297.594838,49.8782609 296.688906,49.5165254 295.992024,48.7930435 C295.295143,48.0695616 294.946707,47.137397 294.946707,45.9965217 C294.946707,44.7165153 295.413611,43.6104394 296.347432,42.6782609 C297.281253,41.7460823 298.417153,41.28 299.755166,41.28 C300.842302,41.28 301.734297,41.6347791 302.431178,42.3443478 C303.12806,43.0539166 303.476495,43.9652118 303.476495,45.0782609 C303.476495,46.3860935 303.01656,47.5130387 302.096677,48.4591304 C301.176793,49.4052221 300.047862,49.8782609 298.709849,49.8782609 Z M320.452447,49.0434783 L320.159758,43.4086957 L313.34429,43.4086957 L311.504532,49.0434783 L302.682054,49.0434783 L315.05861,19.9930435 L325.177281,19.9930435 L329.400363,49.0434783 L320.452447,49.0434783 Z M315.267674,37.3982609 L319.825257,37.3982609 L319.156254,25.3773913 L315.267674,37.3982609 Z M342.696798,19.9930435 L338.640967,49.0434783 L330.194804,49.0434783 L334.250634,19.9930435 L342.696798,19.9930435 Z" id="C-FututreShock.ai" fill="#00FFFB"></path>
                <path d="M26.1120242,19.9930435 L24.3977039,25.9617391 L15.5752266,25.9617391 L14.6971601,32.306087 L22.4743202,32.306087 L21.6380665,38.2747826 L13.8609063,38.2747826 L12.3556495,49.0434783 L3.9094864,49.0434783 L7.96531722,19.9930435 L26.1120242,19.9930435 Z M48.3981873,39.2347826 C48.1194347,41.2660971 47.4295322,43.0817311 46.3284592,44.6817391 C45.2273862,46.2817471 43.7291132,47.5478214 41.8335952,48.48 C39.9380771,49.4121786 37.7080894,49.8782609 35.143565,49.8782609 C31.6312815,49.8782609 28.9971085,49.0991382 27.2409668,47.5408696 C25.4848251,45.9826009 24.6067674,43.8400136 24.6067674,41.1130435 C24.6067674,40.4730403 24.6485796,39.8191338 24.7322054,39.1513043 L27.4082175,19.9930435 L35.8543807,19.9930435 L33.1783686,38.9843478 C33.0947428,39.5965248 33.0529305,40.153041 33.0529305,40.653913 C33.0529305,41.7113096 33.2689606,42.4834758 33.7010272,42.9704348 C34.1330938,43.4573937 34.8369337,43.7008696 35.812568,43.7008696 C37.0390796,43.7008696 37.9798557,43.3113082 38.6349245,42.5321739 C39.2899932,41.7530396 39.729022,40.5426169 39.9520242,38.9008696 L42.6280363,19.9930435 L51.0741994,19.9930435 L48.3981873,39.2347826 Z M75.3673716,19.9930435 L73.6112387,26.4208696 L67.1302719,26.4208696 L63.9525076,49.0434783 L55.5063444,49.0434783 L58.6841088,26.4208696 L51.7432024,26.4208696 L52.6212689,19.9930435 L75.3673716,19.9930435 Z M97.486284,39.2347826 C97.2075313,41.2660971 96.5176289,43.0817311 95.4165559,44.6817391 C94.3154829,46.2817471 92.8172099,47.5478214 90.9216918,48.48 C89.0261738,49.4121786 86.796186,49.8782609 84.2316616,49.8782609 C80.7193782,49.8782609 78.0852052,49.0991382 76.3290634,47.5408696 C74.5729217,45.9826009 73.694864,43.8400136 73.694864,41.1130435 C73.694864,40.4730403 73.7366763,39.8191338 73.8203021,39.1513043 L76.4963142,19.9930435 L84.9424773,19.9930435 L82.2664653,38.9843478 C82.1828395,39.5965248 82.1410272,40.153041 82.1410272,40.653913 C82.1410272,41.7113096 82.3570573,42.4834758 82.7891239,42.9704348 C83.2211905,43.4573937 83.9250304,43.7008696 84.9006647,43.7008696 C86.1271763,43.7008696 87.0679524,43.3113082 87.7230211,42.5321739 C88.3780899,41.7530396 88.8171187,40.5426169 89.0401208,38.9008696 L91.7161329,19.9930435 L100.162296,19.9930435 L97.486284,39.2347826 Z M124.455468,19.9930435 L122.699335,26.4208696 L116.218369,26.4208696 L113.040604,49.0434783 L104.594441,49.0434783 L107.772205,26.4208696 L100.831299,26.4208696 L101.709366,19.9930435 L124.455468,19.9930435 Z M147.536073,28.0069565 C147.536073,30.0104448 147.110981,31.7565143 146.260785,33.2452174 C145.41059,34.7339205 143.772943,36.0904287 141.347795,37.3147826 L146.574381,49.0434783 L137.375589,49.0434783 L133.528822,38.6921739 L131.814502,38.6921739 L130.39287,49.0434783 L121.946707,49.0434783 L126.002538,19.9930435 L136.497523,19.9930435 C140.065557,19.9930435 142.797292,20.7165145 144.69281,22.1634783 C146.588328,23.610442 147.536073,25.5582486 147.536073,28.0069565 Z M132.650755,32.9321739 L134.825015,32.9321739 C136.190903,32.9321739 137.201366,32.5008739 137.856435,31.6382609 C138.511504,30.7756479 138.839033,29.7460929 138.839033,28.5495652 C138.839033,26.7686867 137.710102,25.8782609 135.452205,25.8782609 L133.612447,25.8782609 L132.650755,32.9321739 Z M170.365801,19.9930435 L168.65148,25.9617391 L159.201813,25.9617391 L158.449184,31.3878261 L166.686284,31.3878261 L165.933656,37.1895652 L157.654743,37.1895652 L156.818489,43.0330435 L166.93716,43.0330435 L166.100906,49.0434783 L147.536073,49.0434783 L151.591903,19.9930435 L170.365801,19.9930435 Z M183.076858,19.1582609 C187.369649,19.1582609 190.82613,20.4938997 193.446405,23.1652174 L189.181511,27.5478261 C187.481119,26.0173837 185.557755,25.2521739 183.41136,25.2521739 C182.296349,25.2521739 181.439197,25.4678239 180.839879,25.8991304 C180.240561,26.3304369 179.940906,26.8939096 179.940906,27.5895652 C179.940906,28.0626111 180.073312,28.4521724 180.338127,28.7582609 C180.602942,29.0643494 181.048939,29.3565203 181.676133,29.6347826 C182.303326,29.9130449 183.244102,30.2608675 184.498489,30.6782609 C187.035139,31.5408739 188.895785,32.6469498 190.080483,33.9965217 C191.265182,35.3460937 191.857523,37.0504245 191.857523,39.1095652 C191.857523,40.9460961 191.425463,42.6782527 190.561329,44.306087 C189.697196,45.9339212 188.289516,47.26956 186.338248,48.3130435 C184.386979,49.356527 181.878243,49.8782609 178.811964,49.8782609 C176.331065,49.8782609 174.156827,49.4678302 172.289184,48.6469565 C170.421542,47.8260829 168.846613,46.7617457 167.56435,45.453913 L172.289184,40.653913 C174.156827,42.5182702 176.400752,43.4504348 179.021027,43.4504348 C180.275414,43.4504348 181.237096,43.2139154 181.906103,42.7408696 C182.575109,42.2678237 182.909607,41.5860914 182.909607,40.6956522 C182.909607,39.9165178 182.609953,39.2626113 182.010634,38.733913 C181.411316,38.2052147 180.345103,37.6765244 178.811964,37.1478261 C176.024437,36.2295606 174.031386,35.081746 172.832749,33.7043478 C171.634113,32.3269496 171.034804,30.6782705 171.034804,28.7582609 C171.034804,27.0608611 171.466864,25.4887029 172.330997,24.0417391 C173.19513,22.5947754 174.533123,21.419135 176.345015,20.5147826 C178.156907,19.6104303 180.400833,19.1582609 183.076858,19.1582609 Z M201.349003,49.0434783 L192.90284,49.0434783 L197.000483,19.9930435 L205.446647,19.9930435 L203.94139,30.72 L210.380544,30.72 L211.885801,19.9930435 L220.331964,19.9930435 L216.276133,49.0434783 L207.82997,49.0434783 L209.418852,37.3147826 L203.021511,37.3147826 L201.349003,49.0434783 Z M236.388036,19.1582609 C240.123322,19.1582609 242.980494,20.2086851 244.959637,22.3095652 C246.938781,24.4104453 247.928338,27.3530246 247.928338,31.1373913 C247.928338,34.1147975 247.426591,37.0225945 246.423082,39.8608696 C245.419572,42.6991446 243.747081,45.0782513 241.405559,46.9982609 C239.064037,48.9182705 236.011741,49.8782609 232.24858,49.8782609 C228.54117,49.8782609 225.690967,48.8208801 223.697885,46.706087 C221.704804,44.5912938 220.708278,41.6417581 220.708278,37.8573913 C220.708278,34.8799851 221.210025,31.9721881 222.213535,29.133913 C223.217044,26.295638 224.896504,23.9234878 227.251964,22.0173913 C229.607424,20.1112948 232.652751,19.1582609 236.388036,19.1582609 Z M235.719033,25.2521739 C234.074393,25.2521739 232.785181,26.0173837 231.85136,27.5478261 C230.917538,29.0782685 230.276417,30.8521638 229.927976,32.8695652 C229.579535,34.8869666 229.405317,36.7860781 229.405317,38.5669565 C229.405317,40.4313137 229.691034,41.7669525 230.262477,42.573913 C230.83392,43.3808736 231.718947,43.7843478 232.917583,43.7843478 C234.562224,43.7843478 235.851435,43.0260945 236.785257,41.5095652 C237.719078,39.9930359 238.3602,38.2191406 238.70864,36.1878261 C239.057081,34.1565116 239.231299,32.2226179 239.231299,30.386087 C239.231299,28.549556 238.945582,27.2347866 238.374139,26.4417391 C237.802696,25.6486917 236.91767,25.2521739 235.719033,25.2521739 Z M264.527976,19.1582609 C268.486263,19.1582609 271.524622,20.4104223 273.643142,22.9147826 L269.169184,27.213913 C268.472303,26.6017361 267.761494,26.1356538 267.036737,25.8156522 C266.31198,25.4956506 265.50361,25.3356522 264.611601,25.3356522 C262.966961,25.3356522 261.635937,26.010428 260.618489,27.36 C259.601042,28.709572 258.876296,30.3304253 258.44423,32.2226087 C258.012163,34.1147921 257.796133,35.9095567 257.796133,37.6069565 C257.796133,41.4748019 259.231688,43.4086957 262.10284,43.4086957 C263.022724,43.4086957 263.90775,43.2000021 264.757946,42.7826087 C265.608141,42.3652153 266.562855,41.7669604 267.622115,40.9878261 L270.799879,45.8713043 C269.461866,47.0678321 267.935719,48.0347789 266.22139,48.7721739 C264.507061,49.5095689 262.632477,49.8782609 260.597583,49.8782609 C258.283936,49.8782609 256.26301,49.4121786 254.534743,48.48 C252.806477,47.5478214 251.461515,46.1774003 250.499819,44.3686957 C249.538122,42.559991 249.057281,40.3617521 249.057281,37.773913 C249.057281,34.7965069 249.586903,31.8887098 250.646163,29.0504348 C251.705423,26.2121597 253.391851,23.8539224 255.705498,21.9756522 C258.019146,20.0973819 260.959942,19.1582609 264.527976,19.1582609 Z M272.137885,49.0434783 L276.193716,19.9930435 L284.639879,19.9930435 L280.584048,49.0434783 L272.137885,49.0434783 Z M288.69571,49.0434783 L283.009184,33.5582609 L292.751541,19.9930435 L301.532205,19.9930435 L291.580785,33.3078261 L298.229003,49.0434783 L288.69571,49.0434783 Z M302.368459,49.8782609 C301.253449,49.8782609 300.347516,49.5165254 299.650634,48.7930435 C298.953753,48.0695616 298.605317,47.137397 298.605317,45.9965217 C298.605317,44.7165153 299.072221,43.6104394 300.006042,42.6782609 C300.939864,41.7460823 302.075764,41.28 303.413776,41.28 C304.500912,41.28 305.392907,41.6347791 306.089789,42.3443478 C306.78667,43.0539166 307.135106,43.9652118 307.135106,45.0782609 C307.135106,46.3860935 306.675171,47.5130387 305.755287,48.4591304 C304.835403,49.4052221 303.706472,49.8782609 302.368459,49.8782609 Z M324.111057,49.0434783 L323.818369,43.4086957 L317.0029,43.4086957 L315.163142,49.0434783 L306.340665,49.0434783 L318.717221,19.9930435 L328.835891,19.9930435 L333.058973,49.0434783 L324.111057,49.0434783 Z M318.926284,37.3982609 L323.483867,37.3982609 L322.814864,25.3773913 L318.926284,37.3982609 Z M346.355408,19.9930435 L342.299577,49.0434783 L333.853414,49.0434783 L337.909245,19.9930435 L346.355408,19.9930435 Z" id="R-FututreShock.ai" fill="#FF0000" style="mix-blend-mode: lighten;"></path>
            </g>
        </g>
    </g>
</svg>