<?xml version="1.0" encoding="UTF-8"?>
<svg width="619px" height="59px" viewBox="0 0 619 59" version="1.1" xmlns="http://www.w3.org/2000/svg" xmlns:xlink="http://www.w3.org/1999/xlink">
    <!-- Generator: Sketch 47 (45396) - http://www.bohemiancoding.com/sketch -->
    <title>TEXT FututreShock.ai</title>
    <desc>Created with Sketch.</desc>
    <defs></defs>
    <g id="Page-1" stroke="none" stroke-width="1" fill="none" fill-rule="evenodd">
        <g id="TEXT-FututreShock.ai" transform="translate(0.000000, -37.000000)">
            <path d="M42.4911088,38.6032609 L39.210251,50.0665761 L22.3258368,50.0665761 L20.6453975,62.2513587 L35.5292887,62.2513587 L33.9288703,73.7146739 L19.0449791,73.7146739 L16.1642259,94.3967391 L0,94.3967391 L7.76202929,38.6032609 L42.4911088,38.6032609 Z M85.1422594,75.5584239 C84.6087839,79.4597115 83.288452,82.9467691 81.1812238,86.0197011 C79.0739957,89.0926331 76.2066081,91.5242211 72.5789749,93.314538 C68.9513417,95.104855 64.6836019,96 59.7756276,96 C53.0538367,96 48.0125691,94.5036382 44.6516736,91.5108696 C41.2907782,88.518101 39.6103556,84.4031059 39.6103556,79.1657609 C39.6103556,77.9365881 39.6903758,76.6807129 39.8504184,75.3980978 L44.9717573,38.6032609 L61.1359833,38.6032609 L56.0146444,75.0774457 C55.8546017,76.2531762 55.7745816,77.3220061 55.7745816,78.2839674 C55.7745816,80.3147746 56.1880189,81.7977761 57.0149059,82.7330163 C57.8417928,83.6682565 59.1887982,84.1358696 61.0559623,84.1358696 C63.4032544,84.1358696 65.2037071,83.3876886 66.4573745,81.8913043 C67.7110418,80.3949201 68.5512531,78.070215 68.9780335,74.9171196 L74.0993724,38.6032609 L90.2635983,38.6032609 L85.1422594,75.5584239 Z M136.755753,38.6032609 L133.394874,50.9483696 L120.991632,50.9483696 L114.910042,94.3967391 L98.7458159,94.3967391 L104.827406,50.9483696 L91.5439331,50.9483696 L93.2243724,38.6032609 L136.755753,38.6032609 Z M179.08682,75.5584239 C178.553345,79.4597115 177.233013,82.9467691 175.125785,86.0197011 C173.018556,89.0926331 170.151169,91.5242211 166.523536,93.314538 C162.895902,95.104855 158.628163,96 153.720188,96 C146.998397,96 141.95713,94.5036382 138.596234,91.5108696 C135.235339,88.518101 133.554916,84.4031059 133.554916,79.1657609 C133.554916,77.9365881 133.634936,76.6807129 133.794979,75.3980978 L138.916318,38.6032609 L155.080544,38.6032609 L149.959205,75.0774457 C149.799162,76.2531762 149.719142,77.3220061 149.719142,78.2839674 C149.719142,80.3147746 150.13258,81.7977761 150.959467,82.7330163 C151.786354,83.6682565 153.133359,84.1358696 155.000523,84.1358696 C157.347815,84.1358696 159.148268,83.3876886 160.401935,81.8913043 C161.655603,80.3949201 162.495814,78.070215 162.922594,74.9171196 L168.043933,38.6032609 L184.208159,38.6032609 L179.08682,75.5584239 Z M231.500523,53.9945652 C231.500523,57.8424105 230.686985,61.1958643 229.059885,64.0550272 C227.432785,66.91419 224.298663,69.5194629 219.657427,71.8709239 L229.660042,94.3967391 L212.055439,94.3967391 L204.693515,74.5163043 L201.412657,74.5163043 L198.691946,94.3967391 L182.52772,94.3967391 L190.289749,38.6032609 L210.375,38.6032609 C217.203486,38.6032609 222.431467,39.9927397 226.0591,42.7717391 C229.686734,45.5507385 231.500523,49.2916432 231.500523,53.9945652 Z M203.013075,63.4538043 L207.174163,63.4538043 C209.788193,63.4538043 211.722013,62.6254612 212.97568,60.96875 C214.229347,59.3120388 214.856172,57.3347035 214.856172,55.0366848 C214.856172,51.6163778 212.695628,49.90625 208.374477,49.90625 L204.853556,49.90625 L203.013075,63.4538043 Z M275.191946,38.6032609 L271.911088,50.0665761 L253.82636,50.0665761 L252.385983,60.4877717 L268.150105,60.4877717 L266.709728,71.6304348 L250.865586,71.6304348 L249.265167,82.8532609 L268.63023,82.8532609 L267.029812,94.3967391 L231.500523,94.3967391 L239.262552,38.6032609 L275.191946,38.6032609 Z M299.518305,37 C307.733828,37 314.348824,39.5651917 319.363494,44.6956522 L311.20136,53.1127717 C307.947159,50.1734454 304.266234,48.7038043 300.158473,48.7038043 C298.024571,48.7038043 296.384158,49.1179759 295.237186,49.9463315 C294.090214,50.7746871 293.516736,51.8568774 293.516736,53.1929348 C293.516736,54.1014538 293.770133,54.8496347 294.276935,55.4375 C294.783737,56.0253653 295.637285,56.586501 296.837605,57.1209239 C298.037924,57.6553469 299.838377,58.3233656 302.239017,59.125 C307.093644,60.7817112 310.654539,62.9060106 312.92181,65.497962 C315.18908,68.0899133 316.322699,71.3632049 316.322699,75.3179348 C316.322699,78.8451263 315.495824,82.1718594 313.84205,85.2982337 C312.188276,88.424608 309.494266,90.9897998 305.759937,92.9938859 C302.025609,94.997972 297.224402,96 291.356172,96 C286.60824,96 282.447194,95.211738 278.872908,93.6351902 C275.298622,92.0586425 272.284531,90.0145053 269.830544,87.5027174 L278.872908,78.2839674 C282.447194,81.8646012 286.741607,83.6548913 291.756276,83.6548913 C294.156916,83.6548913 295.997379,83.2006386 297.27772,82.2921196 C298.558061,81.3836005 299.198222,80.0742839 299.198222,78.3641304 C299.198222,76.8677461 298.624744,75.611871 297.477772,74.5964674 C296.3308,73.5810638 294.290287,72.5656754 291.356172,71.5502717 C286.021417,69.786676 282.207124,67.5822143 279.91318,64.9368207 C277.619235,62.291427 276.47228,59.1250184 276.47228,55.4375 C276.47228,52.1775199 277.299155,49.1580755 278.952929,46.3790761 C280.606703,43.6000767 283.167347,41.3421735 286.634937,39.6052989 C290.102528,37.8684243 294.396941,37 299.518305,37 Z M334.487448,94.3967391 L318.323222,94.3967391 L326.165272,38.6032609 L342.329498,38.6032609 L339.448745,59.205163 L351.771967,59.205163 L354.65272,38.6032609 L370.816946,38.6032609 L363.054916,94.3967391 L346.89069,94.3967391 L349.931485,71.8709239 L337.688285,71.8709239 L334.487448,94.3967391 Z M401.544979,37 C408.69355,37 414.161592,39.0174164 417.949268,43.0523098 C421.736944,47.0872031 423.630753,52.7386412 423.630753,60.0067935 C423.630753,65.7251192 422.670512,71.3097554 420.75,76.7608696 C418.829488,82.2119838 415.628683,86.7812316 411.14749,90.46875 C406.666296,94.1562684 400.824827,96 393.622908,96 C386.527684,96 381.072979,93.9692232 377.25863,89.9076087 C373.44428,85.8459942 371.537134,80.1811958 371.537134,72.9130435 C371.537134,67.1947178 372.497375,61.6100816 374.417887,56.1589674 C376.338399,50.7078532 379.55254,46.1519658 384.060408,42.4911685 C388.568276,38.8303712 394.396408,37 401.544979,37 Z M400.264644,48.7038043 C397.117139,48.7038043 394.649852,50.1734454 392.862709,53.1127717 C391.075566,56.052098 389.848591,59.4589933 389.181747,63.3335598 C388.514903,67.2081263 388.181485,70.8555083 388.181485,74.2758152 C388.181485,77.8564491 388.72829,80.4216408 389.821914,81.9714674 C390.915539,83.521294 392.609298,84.2961957 394.903243,84.2961957 C398.050748,84.2961957 400.518035,82.8399149 402.305178,79.9273098 C404.092321,77.0147046 405.319296,73.6078094 405.98614,69.7065217 C406.652985,65.8052341 406.986402,62.0910502 406.986402,58.5638587 C406.986402,55.0366671 406.439598,52.5115565 405.345973,50.9884511 C404.252348,49.4653456 402.558589,48.7038043 400.264644,48.7038043 Z M455.399059,37 C462.97441,37 468.789206,39.4048673 472.843619,44.2146739 L464.281381,52.4714674 C462.947692,51.2957369 461.58735,50.4005918 460.200314,49.7860054 C458.813278,49.171419 457.266222,48.8641304 455.5591,48.8641304 C452.411595,48.8641304 449.864288,50.1600867 447.917103,52.752038 C445.969917,55.3439894 444.582902,58.4569565 443.756015,62.0910326 C442.929128,65.7251088 442.51569,69.1720851 442.51569,72.4320652 C442.51569,79.8605444 445.263048,83.5747283 450.757845,83.5747283 C452.518314,83.5747283 454.212073,83.1739171 455.839174,82.3722826 C457.466274,81.5706482 459.2934,80.421656 461.320607,78.9252717 L467.402197,88.3043478 C464.841514,90.6023666 461.92078,92.4594585 458.639906,93.8756793 C455.359032,95.2919002 451.771463,96 447.877092,96 C443.449246,96 439.581606,95.104855 436.274059,93.314538 C432.966511,91.5242211 430.39253,88.8922275 428.55204,85.4184783 C426.711549,81.944729 425.791318,77.7228509 425.791318,72.7527174 C425.791318,67.0343917 426.804906,61.4497555 428.832113,55.9986413 C430.85932,50.5475271 434.086798,46.0183604 438.514644,42.4110054 C442.942491,38.8036504 448.570573,37 455.399059,37 Z M469.962866,94.3967391 L477.724895,38.6032609 L493.889121,38.6032609 L486.127092,94.3967391 L469.962866,94.3967391 Z M501.651151,94.3967391 L490.768305,64.65625 L509.41318,38.6032609 L526.217573,38.6032609 L507.172594,64.1752717 L519.895921,94.3967391 L501.651151,94.3967391 Z M527.817992,96 C525.68409,96 523.95032,95.3052606 522.616632,93.9157609 C521.282943,92.5262612 520.616109,90.7359711 520.616109,88.544837 C520.616109,86.0864913 521.509667,83.9621919 523.29681,82.171875 C525.083952,80.3815581 527.257832,79.486413 529.818515,79.486413 C531.899069,79.486413 533.606165,80.1677921 534.939854,81.5305707 C536.273542,82.8933492 536.940377,84.6435582 536.940377,86.78125 C536.940377,89.2930379 536.060155,91.4574185 534.299686,93.2744565 C532.539217,95.0914946 530.378674,96 527.817992,96 Z M569.42887,94.3967391 L568.868724,83.5747283 L555.825314,83.5747283 L552.304393,94.3967391 L535.419979,94.3967391 L559.106172,38.6032609 L578.471234,38.6032609 L586.553347,94.3967391 L569.42887,94.3967391 Z M559.506276,72.03125 L568.228556,72.03125 L566.948222,48.9442935 L559.506276,72.03125 Z M612,38.6032609 L604.237971,94.3967391 L588.073745,94.3967391 L595.835774,38.6032609 L612,38.6032609 Z" id="C-FututreShock.ai" fill="#00FFFB"></path>
            <path d="M49.4911088,38.6032609 L46.210251,50.0665761 L29.3258368,50.0665761 L27.6453975,62.2513587 L42.5292887,62.2513587 L40.9288703,73.7146739 L26.0449791,73.7146739 L23.1642259,94.3967391 L7,94.3967391 L14.7620293,38.6032609 L49.4911088,38.6032609 Z M92.1422594,75.5584239 C91.6087839,79.4597115 90.288452,82.9467691 88.1812238,86.0197011 C86.0739957,89.0926331 83.2066081,91.5242211 79.5789749,93.314538 C75.9513417,95.104855 71.6836019,96 66.7756276,96 C60.0538367,96 55.0125691,94.5036382 51.6516736,91.5108696 C48.2907782,88.518101 46.6103556,84.4031059 46.6103556,79.1657609 C46.6103556,77.9365881 46.6903758,76.6807129 46.8504184,75.3980978 L51.9717573,38.6032609 L68.1359833,38.6032609 L63.0146444,75.0774457 C62.8546017,76.2531762 62.7745816,77.3220061 62.7745816,78.2839674 C62.7745816,80.3147746 63.1880189,81.7977761 64.0149059,82.7330163 C64.8417928,83.6682565 66.1887982,84.1358696 68.0559623,84.1358696 C70.4032544,84.1358696 72.2037071,83.3876886 73.4573745,81.8913043 C74.7110418,80.3949201 75.5512531,78.070215 75.9780335,74.9171196 L81.0993724,38.6032609 L97.2635983,38.6032609 L92.1422594,75.5584239 Z M143.755753,38.6032609 L140.394874,50.9483696 L127.991632,50.9483696 L121.910042,94.3967391 L105.745816,94.3967391 L111.827406,50.9483696 L98.5439331,50.9483696 L100.224372,38.6032609 L143.755753,38.6032609 Z M186.08682,75.5584239 C185.553345,79.4597115 184.233013,82.9467691 182.125785,86.0197011 C180.018556,89.0926331 177.151169,91.5242211 173.523536,93.314538 C169.895902,95.104855 165.628163,96 160.720188,96 C153.998397,96 148.95713,94.5036382 145.596234,91.5108696 C142.235339,88.518101 140.554916,84.4031059 140.554916,79.1657609 C140.554916,77.9365881 140.634936,76.6807129 140.794979,75.3980978 L145.916318,38.6032609 L162.080544,38.6032609 L156.959205,75.0774457 C156.799162,76.2531762 156.719142,77.3220061 156.719142,78.2839674 C156.719142,80.3147746 157.13258,81.7977761 157.959467,82.7330163 C158.786354,83.6682565 160.133359,84.1358696 162.000523,84.1358696 C164.347815,84.1358696 166.148268,83.3876886 167.401935,81.8913043 C168.655603,80.3949201 169.495814,78.070215 169.922594,74.9171196 L175.043933,38.6032609 L191.208159,38.6032609 L186.08682,75.5584239 Z M238.500523,53.9945652 C238.500523,57.8424105 237.686985,61.1958643 236.059885,64.0550272 C234.432785,66.91419 231.298663,69.5194629 226.657427,71.8709239 L236.660042,94.3967391 L219.055439,94.3967391 L211.693515,74.5163043 L208.412657,74.5163043 L205.691946,94.3967391 L189.52772,94.3967391 L197.289749,38.6032609 L217.375,38.6032609 C224.203486,38.6032609 229.431467,39.9927397 233.0591,42.7717391 C236.686734,45.5507385 238.500523,49.2916432 238.500523,53.9945652 Z M210.013075,63.4538043 L214.174163,63.4538043 C216.788193,63.4538043 218.722013,62.6254612 219.97568,60.96875 C221.229347,59.3120388 221.856172,57.3347035 221.856172,55.0366848 C221.856172,51.6163778 219.695628,49.90625 215.374477,49.90625 L211.853556,49.90625 L210.013075,63.4538043 Z M282.191946,38.6032609 L278.911088,50.0665761 L260.82636,50.0665761 L259.385983,60.4877717 L275.150105,60.4877717 L273.709728,71.6304348 L257.865586,71.6304348 L256.265167,82.8532609 L275.63023,82.8532609 L274.029812,94.3967391 L238.500523,94.3967391 L246.262552,38.6032609 L282.191946,38.6032609 Z M306.518305,37 C314.733828,37 321.348824,39.5651917 326.363494,44.6956522 L318.20136,53.1127717 C314.947159,50.1734454 311.266234,48.7038043 307.158473,48.7038043 C305.024571,48.7038043 303.384158,49.1179759 302.237186,49.9463315 C301.090214,50.7746871 300.516736,51.8568774 300.516736,53.1929348 C300.516736,54.1014538 300.770133,54.8496347 301.276935,55.4375 C301.783737,56.0253653 302.637285,56.586501 303.837605,57.1209239 C305.037924,57.6553469 306.838377,58.3233656 309.239017,59.125 C314.093644,60.7817112 317.654539,62.9060106 319.92181,65.497962 C322.18908,68.0899133 323.322699,71.3632049 323.322699,75.3179348 C323.322699,78.8451263 322.495824,82.1718594 320.84205,85.2982337 C319.188276,88.424608 316.494266,90.9897998 312.759937,92.9938859 C309.025609,94.997972 304.224402,96 298.356172,96 C293.60824,96 289.447194,95.211738 285.872908,93.6351902 C282.298622,92.0586425 279.284531,90.0145053 276.830544,87.5027174 L285.872908,78.2839674 C289.447194,81.8646012 293.741607,83.6548913 298.756276,83.6548913 C301.156916,83.6548913 302.997379,83.2006386 304.27772,82.2921196 C305.558061,81.3836005 306.198222,80.0742839 306.198222,78.3641304 C306.198222,76.8677461 305.624744,75.611871 304.477772,74.5964674 C303.3308,73.5810638 301.290287,72.5656754 298.356172,71.5502717 C293.021417,69.786676 289.207124,67.5822143 286.91318,64.9368207 C284.619235,62.291427 283.47228,59.1250184 283.47228,55.4375 C283.47228,52.1775199 284.299155,49.1580755 285.952929,46.3790761 C287.606703,43.6000767 290.167347,41.3421735 293.634937,39.6052989 C297.102528,37.8684243 301.396941,37 306.518305,37 Z M341.487448,94.3967391 L325.323222,94.3967391 L333.165272,38.6032609 L349.329498,38.6032609 L346.448745,59.205163 L358.771967,59.205163 L361.65272,38.6032609 L377.816946,38.6032609 L370.054916,94.3967391 L353.89069,94.3967391 L356.931485,71.8709239 L344.688285,71.8709239 L341.487448,94.3967391 Z M408.544979,37 C415.69355,37 421.161592,39.0174164 424.949268,43.0523098 C428.736944,47.0872031 430.630753,52.7386412 430.630753,60.0067935 C430.630753,65.7251192 429.670512,71.3097554 427.75,76.7608696 C425.829488,82.2119838 422.628683,86.7812316 418.14749,90.46875 C413.666296,94.1562684 407.824827,96 400.622908,96 C393.527684,96 388.072979,93.9692232 384.25863,89.9076087 C380.44428,85.8459942 378.537134,80.1811958 378.537134,72.9130435 C378.537134,67.1947178 379.497375,61.6100816 381.417887,56.1589674 C383.338399,50.7078532 386.55254,46.1519658 391.060408,42.4911685 C395.568276,38.8303712 401.396408,37 408.544979,37 Z M407.264644,48.7038043 C404.117139,48.7038043 401.649852,50.1734454 399.862709,53.1127717 C398.075566,56.052098 396.848591,59.4589933 396.181747,63.3335598 C395.514903,67.2081263 395.181485,70.8555083 395.181485,74.2758152 C395.181485,77.8564491 395.72829,80.4216408 396.821914,81.9714674 C397.915539,83.521294 399.609298,84.2961957 401.903243,84.2961957 C405.050748,84.2961957 407.518035,82.8399149 409.305178,79.9273098 C411.092321,77.0147046 412.319296,73.6078094 412.98614,69.7065217 C413.652985,65.8052341 413.986402,62.0910502 413.986402,58.5638587 C413.986402,55.0366671 413.439598,52.5115565 412.345973,50.9884511 C411.252348,49.4653456 409.558589,48.7038043 407.264644,48.7038043 Z M462.399059,37 C469.97441,37 475.789206,39.4048673 479.843619,44.2146739 L471.281381,52.4714674 C469.947692,51.2957369 468.58735,50.4005918 467.200314,49.7860054 C465.813278,49.171419 464.266222,48.8641304 462.5591,48.8641304 C459.411595,48.8641304 456.864288,50.1600867 454.917103,52.752038 C452.969917,55.3439894 451.582902,58.4569565 450.756015,62.0910326 C449.929128,65.7251088 449.51569,69.1720851 449.51569,72.4320652 C449.51569,79.8605444 452.263048,83.5747283 457.757845,83.5747283 C459.518314,83.5747283 461.212073,83.1739171 462.839174,82.3722826 C464.466274,81.5706482 466.2934,80.421656 468.320607,78.9252717 L474.402197,88.3043478 C471.841514,90.6023666 468.92078,92.4594585 465.639906,93.8756793 C462.359032,95.2919002 458.771463,96 454.877092,96 C450.449246,96 446.581606,95.104855 443.274059,93.314538 C439.966511,91.5242211 437.39253,88.8922275 435.55204,85.4184783 C433.711549,81.944729 432.791318,77.7228509 432.791318,72.7527174 C432.791318,67.0343917 433.804906,61.4497555 435.832113,55.9986413 C437.85932,50.5475271 441.086798,46.0183604 445.514644,42.4110054 C449.942491,38.8036504 455.570573,37 462.399059,37 Z M476.962866,94.3967391 L484.724895,38.6032609 L500.889121,38.6032609 L493.127092,94.3967391 L476.962866,94.3967391 Z M508.651151,94.3967391 L497.768305,64.65625 L516.41318,38.6032609 L533.217573,38.6032609 L514.172594,64.1752717 L526.895921,94.3967391 L508.651151,94.3967391 Z M534.817992,96 C532.68409,96 530.95032,95.3052606 529.616632,93.9157609 C528.282943,92.5262612 527.616109,90.7359711 527.616109,88.544837 C527.616109,86.0864913 528.509667,83.9621919 530.29681,82.171875 C532.083952,80.3815581 534.257832,79.486413 536.818515,79.486413 C538.899069,79.486413 540.606165,80.1677921 541.939854,81.5305707 C543.273542,82.8933492 543.940377,84.6435582 543.940377,86.78125 C543.940377,89.2930379 543.060155,91.4574185 541.299686,93.2744565 C539.539217,95.0914946 537.378674,96 534.817992,96 Z M576.42887,94.3967391 L575.868724,83.5747283 L562.825314,83.5747283 L559.304393,94.3967391 L542.419979,94.3967391 L566.106172,38.6032609 L585.471234,38.6032609 L593.553347,94.3967391 L576.42887,94.3967391 Z M566.506276,72.03125 L575.228556,72.03125 L573.948222,48.9442935 L566.506276,72.03125 Z M619,38.6032609 L611.237971,94.3967391 L595.073745,94.3967391 L602.835774,38.6032609 L619,38.6032609 Z" id="R-FututreShock.ai" fill="#FF0000" style="mix-blend-mode: lighten;"></path>
        </g>
    </g>
</svg>