<?xml version="1.0" encoding="UTF-8"?>
<svg width="28px" height="41px" viewBox="0 0 28 41" version="1.1" xmlns="http://www.w3.org/2000/svg" xmlns:xlink="http://www.w3.org/1999/xlink">
    <!-- Generator: Sketch 47 (45396) - http://www.bohemiancoding.com/sketch -->
    <title>TEXT info</title>
    <desc>Created with Sketch.</desc>
    <defs></defs>
    <g id="Page-1" stroke="none" stroke-width="1" fill="none" fill-rule="evenodd">
        <g id="TEXT-info" transform="translate(1.000000, -13.000000)">
            <path d="M14.64,30.04 C18.9333548,31.640008 21.08,34.2666484 21.08,37.92 C21.08,39.2800068 20.780003,40.593327 20.18,41.86 C19.579997,43.126673 18.6266732,44.226662 17.32,45.16 C16.0133268,46.093338 14.36001,46.7333316 12.36,47.08 L11.44,53.6 L6.12,53.6 L7.04,47.24 C5.306658,47.0266656 3.7533402,46.5600036 2.38,45.84 C1.0066598,45.1199964 -0.1066624,44.2533384 -0.96,43.24 L3.4,39.12 C4.2533376,39.9733376 5.2066614,40.6199978 6.26,41.06 C7.3133386,41.5000022 8.3466616,41.72 9.36,41.72 C10.4800056,41.72 11.3599968,41.4666692 12,40.96 C12.6400032,40.4533308 12.96,39.8266704 12.96,39.08 C12.96,38.3599964 12.7200024,37.7866688 12.24,37.36 C11.7599976,36.9333312 10.8800064,36.4666692 9.6,35.96 C7.1466544,35.0533288 5.386672,33.9733396 4.32,32.72 C3.253328,31.4666604 2.72,29.9866752 2.72,28.28 C2.72,26.1733228 3.4666592,24.3133414 4.96,22.7 C6.4533408,21.0866586 8.5733196,20.0533356 11.32,19.6 L12.12,13.64 L17.44,13.64 L16.56,19.64 C19.093346,20.0933356 21.2799908,21.2399908 23.12,23.08 L19.28,27.04 C17.4666576,25.6533264 15.7466748,24.96 14.12,24.96 C13.0799948,24.96 12.2800028,25.1533314 11.72,25.54 C11.1599972,25.9266686 10.88,26.4266636 10.88,27.04 C10.88,27.6533364 11.1333308,28.159998 11.64,28.56 C12.1466692,28.960002 13.1466592,29.4533304 14.64,30.04 Z" id="C-FututreShock.ai" fill="#00FFFB"></path>
            <path d="M17.64,30.04 C21.9333548,31.640008 24.08,34.2666484 24.08,37.92 C24.08,39.2800068 23.780003,40.593327 23.18,41.86 C22.579997,43.126673 21.6266732,44.226662 20.32,45.16 C19.0133268,46.093338 17.36001,46.7333316 15.36,47.08 L14.44,53.6 L9.12,53.6 L10.04,47.24 C8.306658,47.0266656 6.7533402,46.5600036 5.38,45.84 C4.0066598,45.1199964 2.8933376,44.2533384 2.04,43.24 L6.4,39.12 C7.2533376,39.9733376 8.2066614,40.6199978 9.26,41.06 C10.3133386,41.5000022 11.3466616,41.72 12.36,41.72 C13.4800056,41.72 14.3599968,41.4666692 15,40.96 C15.6400032,40.4533308 15.96,39.8266704 15.96,39.08 C15.96,38.3599964 15.7200024,37.7866688 15.24,37.36 C14.7599976,36.9333312 13.8800064,36.4666692 12.6,35.96 C10.1466544,35.0533288 8.386672,33.9733396 7.32,32.72 C6.253328,31.4666604 5.72,29.9866752 5.72,28.28 C5.72,26.1733228 6.4666592,24.3133414 7.96,22.7 C9.4533408,21.0866586 11.5733196,20.0533356 14.32,19.6 L15.12,13.64 L20.44,13.64 L19.56,19.64 C22.093346,20.0933356 24.2799908,21.2399908 26.12,23.08 L22.28,27.04 C20.4666576,25.6533264 18.7466748,24.96 17.12,24.96 C16.0799948,24.96 15.2800028,25.1533314 14.72,25.54 C14.1599972,25.9266686 13.88,26.4266636 13.88,27.04 C13.88,27.6533364 14.1333308,28.159998 14.64,28.56 C15.1466692,28.960002 16.1466592,29.4533304 17.64,30.04 Z" id="R-FututreShock.ai" fill="#FF0000" style="mix-blend-mode: lighten;"></path>
        </g>
    </g>
</svg>